<svg xmlns="http://www.w3.org/2000/svg" viewBox="0 0 1280 720" role="img" aria-labelledby="title desc">
  <title id="title">Toon Tone Game cartoon animal preview</title>
  <desc id="desc">Original cartoon cat and tiger color memory game preview for Bitesize Arcade.</desc>
  <defs>
    <linearGradient id="bg" x1="0" y1="0" x2="1" y2="1">
      <stop offset="0" stop-color="#fff8ed"/>
      <stop offset="0.48" stop-color="#ffe08f"/>
      <stop offset="1" stop-color="#ff8a78"/>
    </linearGradient>
    <filter id="shadow" x="-20%" y="-20%" width="140%" height="150%">
      <feDropShadow dx="0" dy="13" stdDeviation="13" flood-color="#6b2f20" flood-opacity=".2"/>
    </filter>
    <pattern id="checks" width="28" height="28" patternUnits="userSpaceOnUse">
      <rect width="14" height="14" fill="#f8f0e6"/>
      <rect x="14" y="14" width="14" height="14" fill="#f8f0e6"/>
      <rect x="14" width="14" height="14" fill="#aa9c90"/>
      <rect y="14" width="14" height="14" fill="#aa9c90"/>
    </pattern>
  </defs>
  <rect width="1280" height="720" rx="46" fill="url(#bg)"/>
  <rect x="88" y="72" width="1104" height="576" rx="44" fill="#fff8ef" opacity=".82" stroke="#5e2d1f" stroke-opacity=".16" stroke-width="8"/>
  <g filter="url(#shadow)">
    <ellipse cx="388" cy="548" rx="154" ry="28" fill="#4b281d" opacity=".14"/>
    <path d="M252 260c-34-42-32-111 9-150l58 68c42-20 96-20 138 0l58-68c41 39 43 108 9 150 2 11 3 23 3 35 0 96-62 157-139 157s-139-61-139-157c0-12 1-24 3-35z" fill="#7c52c7" stroke="#2f1b16" stroke-width="13" stroke-linejoin="round"/>
    <path d="M260 110l58 68c-25 11-47 29-64 52-13-40-11-82 6-120zM516 110l-58 68c25 11 47 29 64 52 13-40 11-82-6-120z" fill="#22b64b" stroke="#2f1b16" stroke-width="10" stroke-linejoin="round"/>
    <ellipse cx="345" cy="286" rx="28" ry="34" fill="#fffaf1"/>
    <ellipse cx="431" cy="286" rx="28" ry="34" fill="#fffaf1"/>
    <circle cx="351" cy="291" r="15" fill="#2f1b16"/>
    <circle cx="437" cy="291" r="15" fill="#2f1b16"/>
    <circle cx="358" cy="277" r="6" fill="#ffffff"/>
    <circle cx="444" cy="277" r="6" fill="#ffffff"/>
    <ellipse cx="314" cy="334" rx="27" ry="15" fill="#ff9cab" opacity=".56"/>
    <ellipse cx="462" cy="334" rx="27" ry="15" fill="#ff9cab" opacity=".56"/>
    <path d="M365 346c16 17 30 17 46 0" fill="none" stroke="#2f1b16" stroke-width="10" stroke-linecap="round"/>
    <path d="M294 420c43-38 145-38 188 0l44 104H250z" fill="#35b9c1" stroke="#2f1b16" stroke-width="13" stroke-linejoin="round"/>
    <ellipse cx="388" cy="478" rx="72" ry="47" fill="url(#checks)" stroke="#2f1b16" stroke-width="10" stroke-dasharray="16 11"/>
  </g>
  <g transform="translate(690 136)">
    <text x="0" y="0" font-family="Inter, Arial, sans-serif" font-size="68" font-weight="900" fill="#2d1d17">Toon Tone</text>
    <text x="0" y="74" font-family="Inter, Arial, sans-serif" font-size="48" font-weight="900" fill="#a83f22">Game</text>
    <text x="0" y="140" font-family="Inter, Arial, sans-serif" font-size="28" font-weight="800" fill="#5c392f">Match hidden animal colors.</text>
    <g transform="translate(0 205)">
      <rect width="330" height="30" rx="15" fill="url(#rainbow)"/>
      <defs>
        <linearGradient id="rainbow" x1="0" y1="0" x2="1" y2="0">
          <stop offset="0" stop-color="#ff1b12"/>
          <stop offset=".18" stop-color="#fff400"/>
          <stop offset=".36" stop-color="#40ff00"/>
          <stop offset=".55" stop-color="#00ffd5"/>
          <stop offset=".74" stop-color="#0062ff"/>
          <stop offset="1" stop-color="#ff006f"/>
        </linearGradient>
      </defs>
      <circle cx="165" cy="15" r="30" fill="#fffdf8" stroke="#b7b7b7" stroke-width="9"/>
    </g>
  </g>
</svg>
