<svg xmlns="http://www.w3.org/2000/svg" viewBox="0 0 512 512">
  <defs>
    <linearGradient id="bg" x1="72" y1="74" x2="448" y2="454" gradientUnits="userSpaceOnUse">
      <stop offset="0" stop-color="#251822"/>
      <stop offset="0.45" stop-color="#4b211c"/>
      <stop offset="1" stop-color="#c95130"/>
    </linearGradient>
    <radialGradient id="glow" cx="69%" cy="24%" r="56%">
      <stop offset="0" stop-color="#ffce6c" stop-opacity="0.74"/>
      <stop offset="0.48" stop-color="#f06b48" stop-opacity="0.23"/>
      <stop offset="1" stop-color="#000000" stop-opacity="0"/>
    </radialGradient>
    <filter id="softShadow" x="-20%" y="-20%" width="140%" height="150%">
      <feDropShadow dx="0" dy="10" stdDeviation="8" flood-color="#130807" flood-opacity="0.52"/>
    </filter>
  </defs>
  <rect width="512" height="512" rx="112" fill="url(#bg)"/>
  <rect width="512" height="512" rx="112" fill="url(#glow)"/>
  <rect x="34" y="34" width="444" height="444" rx="88" fill="none" stroke="#ffc46d" stroke-width="20" opacity="0.76"/>
  <rect x="54" y="54" width="404" height="404" rx="74" fill="none" stroke="#fff0c8" stroke-width="4" opacity="0.46"/>
  <g filter="url(#softShadow)">
    <path d="M383 105c0-8 6-14 14-14s14 6 14 14v151c0 8-6 14-14 14s-14-6-14-14z" fill="#ffd481"/>
    <rect x="342" y="125" width="108" height="37" rx="18.5" fill="#ef6847" stroke="#fff1cf" stroke-width="5"/>
    <rect x="342" y="178" width="108" height="37" rx="18.5" fill="#ffbf58" stroke="#fff1cf" stroke-width="5"/>
    <rect x="342" y="231" width="108" height="37" rx="18.5" fill="#77d0c9" stroke="#fff1cf" stroke-width="5"/>
  </g>
  <g filter="url(#softShadow)">
    <text x="59" y="303" font-family="Arial Black, Arial, Helvetica, sans-serif" font-size="186" font-weight="900" letter-spacing="-10" fill="#fff0c8" stroke="#6a291f" stroke-width="9">MB</text>
    <text x="182" y="391" font-family="Arial Black, Arial, Helvetica, sans-serif" font-size="43" font-weight="900" letter-spacing="5" fill="#ffbd63">BITES</text>
  </g>
</svg>
